<?xml version="1.0" standalone="no"?>
<!DOCTYPE svg PUBLIC "-//W3C//DTD SVG 20010904//EN"
 "http://www.w3.org/TR/2001/REC-SVG-20010904/DTD/svg10.dtd">
<svg version="1.0" xmlns="http://www.w3.org/2000/svg"
 width="320.000000pt" height="320.000000pt" viewBox="0 0 320.000000 320.000000"
 preserveAspectRatio="xMidYMid meet">
<metadata>
Created by potrace 1.16, written by Peter Selinger 2001-2019
</metadata>
<g transform="translate(0.000000,320.000000) scale(0.100000,-0.100000)"
fill="#000000" stroke="none">
<path d="M1525 2861 c-477 -162 -755 -260 -802 -282 -48 -23 -43 -10 -68 -209
-22 -181 -21 -183 22 -217 20 -17 33 -35 29 -41 -3 -6 -28 -18 -54 -28 -57
-21 -58 -22 -66 -57 -5 -23 -2 -29 19 -39 32 -14 32 -22 -2 -34 -28 -10 -26
-11 92 -99 66 -49 157 -115 203 -147 l82 -57 168 55 c92 30 208 71 259 90 51
19 94 34 96 34 2 0 1 -14 -1 -31 -4 -24 -12 -34 -41 -46 -20 -8 -38 -19 -41
-24 -6 -9 -274 -99 -368 -123 -35 -9 -69 -13 -75 -9 -13 7 -63 44 -207 150
-143 105 -145 106 -176 96 -21 -7 -27 -16 -29 -42 -2 -26 2 -35 22 -44 19 -8
26 -8 32 1 5 9 55 -20 167 -99 87 -61 162 -114 166 -118 4 -3 5 -16 2 -29 -6
-22 -7 -21 -58 15 -81 58 -156 113 -219 160 -55 42 -60 43 -93 33 -30 -10 -34
-16 -34 -44 0 -28 7 -38 41 -61 39 -28 40 -30 35 -74 -3 -25 -10 -86 -16 -136
-20 -177 -50 -431 -60 -500 -5 -38 -17 -132 -26 -208 l-17 -138 40 -34 c44
-38 161 -125 263 -196 36 -25 76 -46 91 -47 22 -1 205 58 411 134 l77 29 6 50
c9 67 34 168 45 179 5 5 52 -18 117 -59 l108 -68 55 16 c99 29 521 176 533
185 7 6 36 18 65 27 28 10 52 20 52 24 0 3 11 89 24 191 13 102 23 186 21 188
-1 1 -19 -4 -41 -11 -81 -28 -92 -29 -105 -5 -11 21 -11 22 5 9 14 -12 26 -11
81 4 36 9 65 20 65 24 0 3 -22 20 -48 38 -26 17 -67 46 -91 62 -51 36 -61 38
-62 14 0 -10 -14 16 -30 57 -17 41 -46 111 -65 155 l-34 81 89 90 c66 67 99
110 129 169 48 93 55 95 13 4 -18 -39 -31 -90 -35 -130 l-6 -65 97 -58 c54
-32 107 -67 118 -77 18 -16 26 -17 60 -8 22 6 42 13 44 15 2 2 14 93 27 201
12 109 25 211 29 226 l8 29 -63 -32 c-34 -17 -66 -30 -72 -28 -5 2 23 18 62
37 84 39 84 39 -29 112 l-74 47 -41 -18 c-22 -11 -47 -27 -54 -37 -13 -16 -13
-15 -8 12 15 83 28 245 22 297 -11 105 -59 187 -130 219 -99 45 -188 22 -899
-231 -142 -50 -261 -90 -263 -87 -3 3 14 12 38 20 757 268 920 322 998 333 41
5 92 -2 145 -21 11 -4 -4 16 -33 44 -88 84 -381 301 -405 301 -7 0 -156 -49
-332 -109z m689 -320 c25 -26 30 -44 46 -152 18 -126 15 -204 -12 -289 -38
-121 -65 -192 -92 -240 -35 -62 -118 -150 -189 -198 l-48 -33 21 -27 c52 -68
59 -84 161 -357 16 -44 42 -105 57 -135 24 -48 30 -55 55 -53 25 2 27 -1 27
-36 0 -51 -28 -154 -45 -167 -8 -6 -108 -41 -222 -78 -114 -38 -214 -75 -221
-85 -12 -14 -13 -12 -8 14 7 36 52 422 61 520 5 65 4 74 -27 134 -18 35 -40
69 -49 74 -13 8 -49 0 -144 -32 -100 -34 -129 -40 -138 -31 -9 10 -9 11 0 6 6
-3 56 10 111 31 85 31 100 40 100 58 0 20 -4 22 -37 14 -35 -8 -145 -45 -208
-70 -46 -19 -63 -61 -63 -156 0 -78 -6 -126 -34 -283 -8 -47 -18 -128 -21
-180 -4 -70 -14 -120 -38 -190 l-32 -95 -135 -47 c-74 -25 -135 -46 -136 -45
-3 5 92 831 103 894 5 29 3 31 -18 27 -22 -5 -21 -4 4 11 l28 16 -31 29 c-55
51 -56 50 271 162 135 47 177 65 185 82 5 11 15 20 22 19 7 -2 12 5 12 16 0
27 18 38 115 71 106 36 155 64 216 123 82 80 119 153 119 232 0 70 -26 105
-79 105 -20 0 -111 -25 -201 -55 l-164 -55 -28 27 -28 26 -42 -43 c-38 -39
-57 -48 -163 -82 -152 -48 -149 -47 -142 -54 3 -3 51 8 107 26 77 23 105 28
115 20 10 -8 25 -8 55 0 38 10 72 7 39 -4 -149 -48 -317 -92 -324 -84 -7 7 24
321 33 330 9 9 119 49 423 157 361 127 472 160 545 161 54 0 63 -3 88 -29z
m-634 -559 c0 -5 -19 -15 -42 -22 -24 -7 -37 -15 -30 -17 6 -3 12 -12 12 -21
0 -23 -123 -77 -335 -147 -91 -30 -168 -55 -170 -55 -15 0 -2 29 18 39 l22 11
-22 -6 c-13 -3 -23 -1 -23 4 0 5 46 24 103 41 56 18 165 60 242 93 77 33 158
66 180 73 22 7 41 13 43 14 1 1 2 -3 2 -7z"/>
<path d="M2474 2710 c-38 -27 -84 -62 -103 -78 l-33 -28 25 -41 c33 -52 57
-134 57 -193 0 -54 2 -56 111 -123 74 -45 76 -46 115 -32 34 11 39 17 42 47 1
18 10 94 18 168 9 74 18 150 19 167 3 30 -3 37 -80 98 -46 36 -88 65 -93 65
-5 0 -40 -22 -78 -50z"/>
</g>
</svg>
